<svg xmlns="http://www.w3.org/2000/svg" viewBox="0 0 1366 768" width="1366" height="768">
	<defs>
		<clipPath clipPathUnits="userSpaceOnUse" id="cp1">
			<path d="M0 0L1366 0L1366 768L0 768Z" />
		</clipPath>
	</defs>
	<style>
		tspan { white-space:pre }
		.shp0 { fill: #f5dd0e } 
		.shp1 { fill: #ffffff } 
	</style>
	<g id="Artboard 1" clip-path="url(#cp1)">
		<path id="Rectangle 1" fill-rule="evenodd" class="shp0" d="M-2 3L1379.32 3L1379.32 770.6L1050.23 770.6C1174.59 554.85 928.44 628.77 1008.57 471.23C1243.23 9.9 481.88 119.49 414.87 97.21C347.85 74.93 299.04 176.25 107.62 168.09C53.01 165.76 19.28 184.9 -2 216.37L-2 3ZM-2 770.6L-2 216.37C-55.3 295.22 -30.4 451.45 -59.55 541.25C-100.34 666.91 1.74 899.9 325.41 957.97C557.48 999.61 826.8 1101.89 1023.03 813.66C1033.6 798.14 1042.61 783.82 1050.23 770.6L-2 770.6Z" />
		<path id="Shape 2" class="shp1" d="M-21.88 102.13C160.12 150.35 114.12 127.91 204.12 110.13C294.12 92.35 284.12 89.91 288.12 40.13C292.12 -9.65 260.12 -28.09 220.12 -63.87C180.12 -99.65 190.12 -104.09 112.12 -91.87C34.12 -79.65 18.12 -72.09 -21.88 -59.87C-61.88 -47.65 -107.88 -64.09 -87.88 2.13C-67.88 68.35 -203.88 53.91 -21.88 102.13Z" />
	</g>
</svg>